<svg width="18" height="18" viewBox="0 0 18 18" fill="none" xmlns="http://www.w3.org/2000/svg">
<g clip-path="url(#clip0_4_170)">
<path d="M9 0C4.02975 0 0 4.02919 0 9C0 13.9708 4.02919 18 9 18C13.9708 18 18 13.9708 18 9C18 4.02919 13.9708 0 9 0ZM9 16.893C4.6575 16.893 1.125 13.3425 1.125 9C1.125 4.6575 4.6575 1.125 9 1.125C13.3425 1.125 16.875 4.6575 16.875 9C16.875 13.3425 13.3425 16.893 9 16.893ZM9.35831 5.60081C9.13894 5.82019 9.13894 6.17681 9.35831 6.39619L11.3929 8.43075H5.05687C4.74581 8.43075 4.49437 8.68275 4.49437 8.99325C4.49437 9.30375 4.74581 9.55575 5.05687 9.55575H11.4283L9.35831 11.6257C9.13894 11.8451 9.13894 12.2012 9.35831 12.4211C9.468 12.5308 9.612 12.5859 9.756 12.5859C9.9 12.5859 10.044 12.5308 10.1537 12.4211L13.4764 9.01069L10.1537 5.60025C9.93375 5.38088 9.57825 5.38088 9.35775 5.60025L9.35831 5.60081Z" fill="white"/>
</g>
<defs>
<clipPath id="clip0_4_170">
<rect width="18" height="18" fill="white"/>
</clipPath>
</defs>
</svg>
