<svg width="40" height="40" viewBox="0 0 40 40" fill="none" xmlns="http://www.w3.org/2000/svg">
<path d="M1 20C1 9.50573 9.50884 1 20 1C30.4928 1 39 9.50567 39 20C39 30.4927 30.4927 39 20 39C9.5089 39 1 30.4927 1 20Z" fill="#3BBC2E" stroke="#3BBC2E" stroke-width="2"/>
<path fill-rule="evenodd" clip-rule="evenodd" d="M12.27 22.1881C12.3174 22.2041 12.3653 22.2154 12.4131 22.2223C12.4653 22.3449 12.5326 22.5034 12.6112 22.6888C12.8031 23.1412 13.0615 23.7532 13.3284 24.3915C13.8724 25.6933 14.4213 27.0352 14.5425 27.4194C14.6925 27.8942 14.8512 28.217 15.0243 28.4375C15.1138 28.5515 15.2174 28.6509 15.3386 28.7263C15.3995 28.7642 15.464 28.7953 15.5312 28.8185C15.5342 28.8196 15.5371 28.8206 15.5401 28.8215C15.8868 28.9524 16.2029 28.8979 16.4008 28.8313C16.5066 28.7955 16.5923 28.7525 16.653 28.7176C16.684 28.6998 16.7101 28.6832 16.731 28.6691L16.7359 28.6659L19.7976 26.7565L23.3343 29.4678C23.3864 29.5078 23.4434 29.5414 23.5036 29.5677C23.9285 29.7531 24.3399 29.8178 24.7269 29.7649C25.1133 29.7121 25.42 29.5499 25.6484 29.3671C25.872 29.1882 26.0237 28.9878 26.118 28.839C26.1662 28.7629 26.2024 28.6956 26.228 28.6442C26.2408 28.6183 26.251 28.596 26.2591 28.5781L26.2692 28.5545L26.2731 28.5452L26.2748 28.5413L26.2754 28.5394L26.2762 28.5377C26.2947 28.4912 26.309 28.4431 26.3188 28.394L29.5473 12.1165C29.5576 12.0644 29.5628 12.0115 29.5628 11.9584C29.5628 11.4817 29.3832 11.0284 28.9609 10.7534C28.5999 10.5183 28.1978 10.5082 27.9438 10.5275C27.6696 10.5483 27.4164 10.616 27.2465 10.67C27.1581 10.6982 27.0839 10.7253 27.0305 10.746C27.0036 10.7564 26.9816 10.7654 26.9652 10.7722L26.9529 10.7774L8.84637 17.8803L8.84403 17.8812C8.83249 17.8854 8.81767 17.8909 8.80007 17.8977C8.76501 17.9114 8.71803 17.9306 8.66316 17.9555C8.55615 18.004 8.40602 18.0797 8.25196 18.1853C8.00584 18.3538 7.4398 18.8154 7.53512 19.5773C7.61116 20.1852 8.02757 20.5585 8.28127 20.738C8.42058 20.8366 8.55293 20.907 8.64931 20.953C8.69402 20.9742 8.78686 21.0119 8.82714 21.0284L8.83732 21.0325L12.27 22.1881ZM27.5866 12.2737L27.5841 12.2748C27.575 12.2787 27.566 12.2825 27.5568 12.286L9.42829 19.3976C9.41882 19.4013 9.40928 19.4049 9.39968 19.4082L9.3896 19.412C9.378 19.4166 9.35847 19.4245 9.33397 19.4355C9.32007 19.4418 9.30556 19.4487 9.29078 19.4561C9.31109 19.4676 9.33054 19.4775 9.34781 19.4857C9.3644 19.4936 9.37705 19.499 9.38398 19.5018L12.7885 20.648C12.8508 20.669 12.9089 20.6967 12.9622 20.7303L24.2038 14.1496L24.2143 14.1434C24.2224 14.1385 24.2332 14.1323 24.2461 14.125C24.2717 14.1106 24.3068 14.0913 24.3486 14.07C24.4266 14.0303 24.5515 13.9714 24.6921 13.9279C24.79 13.8977 25.0787 13.8124 25.3908 13.9125C25.5834 13.9743 25.7828 14.1071 25.9126 14.3321C25.977 14.4439 26.0113 14.5562 26.028 14.659C26.0722 14.821 26.0651 14.9809 26.0306 15.1189C25.9561 15.4163 25.7472 15.6483 25.5571 15.8257C25.3941 15.9778 23.2866 18.01 21.2076 20.0161C20.1707 21.0164 19.1446 22.007 18.3775 22.7474L17.8737 23.2338L24.235 28.1108C24.3809 28.163 24.4671 28.1604 24.507 28.1548C24.5545 28.1483 24.5934 28.13 24.6332 28.0983C24.6776 28.0628 24.7165 28.0147 24.7455 27.9688L24.7467 27.967L27.8781 12.1796C27.8316 12.1908 27.7846 12.2041 27.7393 12.2185C27.6881 12.2348 27.6457 12.2504 27.6178 12.2612C27.6038 12.2666 27.5938 12.2707 27.5884 12.273L27.5866 12.2737ZM18.4202 25.7004L17.151 24.7274L16.8436 26.6836L18.4202 25.7004ZM15.9868 22.7967L17.2489 21.5783C18.016 20.8378 19.0423 19.8472 20.0793 18.8466L21.1328 17.8302L14.0694 21.9651L14.1073 22.0545C14.2998 22.5085 14.5595 23.1231 14.8277 23.7649C15.0282 24.2447 15.238 24.7499 15.429 25.2177L15.7356 23.2673C15.7651 23.0792 15.857 22.9165 15.9868 22.7967Z" fill="white"/>
</svg>
