<svg width="29" height="28" viewBox="0 0 29 28" fill="none" xmlns="http://www.w3.org/2000/svg">
<g clip-path="url(#clip0_16_167)">
<path d="M14.2593 0C11.439 0 8.68217 0.821086 6.33724 2.35943C3.99232 3.89777 2.16468 6.08427 1.08543 8.64243C0.00617834 11.2006 -0.276203 14.0155 0.273994 16.7313C0.824191 19.447 2.18225 21.9416 4.17645 23.8995C6.17064 25.8574 8.7114 27.1908 11.4774 27.731C14.2434 28.2712 17.1105 27.9939 19.716 26.9343C22.3216 25.8747 24.5486 24.0803 26.1154 21.778C27.6822 19.4757 28.5185 16.7689 28.5185 14C28.5144 10.2882 27.0108 6.72958 24.3376 4.10494C21.6643 1.4803 18.0398 0.0040146 14.2593 0V0ZM14.2593 25.6667C11.9091 25.6667 9.61168 24.9824 7.65758 23.7005C5.70348 22.4185 4.18044 20.5964 3.28107 18.4646C2.38169 16.3328 2.14638 13.9871 2.60487 11.7239C3.06337 9.46084 4.19509 7.38203 5.85692 5.75042C7.51874 4.11881 9.63604 3.00767 11.9411 2.55751C14.2461 2.10734 16.6353 2.33838 18.8066 3.22141C20.9779 4.10443 22.8337 5.59977 24.1394 7.51835C25.4451 9.43692 26.142 11.6926 26.142 14C26.1385 17.0932 24.8855 20.0586 22.6578 22.2458C20.4301 24.433 17.4097 25.6633 14.2593 25.6667Z" fill="#61C159"/>
<path d="M14.2593 7C13.9441 7 13.6419 7.12292 13.419 7.34171C13.1962 7.5605 13.071 7.85725 13.071 8.16667V13.2125L9.06532 15.6765C8.79745 15.8408 8.60702 16.1029 8.53593 16.405C8.46484 16.7072 8.51892 17.0247 8.68626 17.2877C8.85361 17.5507 9.12051 17.7376 9.42826 17.8074C9.73601 17.8772 10.0594 17.8241 10.3273 17.6598L14.8902 14.8598C15.0626 14.7538 15.2044 14.606 15.302 14.4308C15.3996 14.2555 15.4497 14.0586 15.4475 13.8588V8.16667C15.4475 7.85725 15.3223 7.5605 15.0995 7.34171C14.8766 7.12292 14.5744 7 14.2593 7Z" fill="#61C159"/>
</g>
<defs>
<clipPath id="clip0_16_167">
<rect width="28.5185" height="28" fill="white"/>
</clipPath>
</defs>
</svg>
