<svg width="25" height="30" viewBox="0 0 25 30" fill="none" xmlns="http://www.w3.org/2000/svg">
<path d="M12.5002 7.06543C11.5328 7.06543 10.5871 7.36824 9.78273 7.93556C8.97836 8.50288 8.35143 9.30924 7.98122 10.2527C7.61101 11.1961 7.51414 12.2342 7.70287 13.2357C7.89161 14.2373 8.35746 15.1572 9.04152 15.8793C9.72558 16.6014 10.5971 17.0931 11.5459 17.2923C12.4948 17.4915 13.4782 17.3893 14.372 16.9985C15.2658 16.6077 16.0297 15.946 16.5672 15.0969C17.1046 14.2478 17.3915 13.2496 17.3915 12.2285C17.3915 10.8591 16.8762 9.54591 15.9589 8.57765C15.0416 7.60939 13.7974 7.06543 12.5002 7.06543ZM12.5002 14.81C12.0165 14.81 11.5436 14.6586 11.1415 14.3749C10.7393 14.0913 10.4258 13.6881 10.2407 13.2164C10.0556 12.7447 10.0072 12.2256 10.1015 11.7248C10.1959 11.2241 10.4288 10.7641 10.7709 10.4031C11.1129 10.042 11.5487 9.79616 12.0231 9.69655C12.4975 9.59695 12.9892 9.64807 13.4361 9.84346C13.883 10.0388 14.2649 10.3697 14.5337 10.7943C14.8024 11.2188 14.9458 11.7179 14.9458 12.2285C14.9458 12.9131 14.6882 13.5698 14.2295 14.0539C13.7709 14.538 13.1488 14.81 12.5002 14.81Z" fill="#3BBC2E"/>
<path d="M12.5 29.3477C11.4532 29.353 10.4203 29.1115 9.4879 28.6435C8.55547 28.1755 7.75062 27.4946 7.14073 26.6578C2.40303 20.2299 0 15.3977 0 12.2945C0 9.03376 1.31696 5.90662 3.66116 3.60096C6.00537 1.29531 9.18479 0 12.5 0C15.8152 0 18.9946 1.29531 21.3388 3.60096C23.683 5.90662 25 9.03376 25 12.2945C25 15.3977 22.597 20.2299 17.8593 26.6578C17.2494 27.4946 16.4445 28.1755 15.5121 28.6435C14.5797 29.1115 13.5468 29.353 12.5 29.3477ZM12.5 2.6692C9.90479 2.67211 7.41673 3.68739 5.58164 5.4923C3.74655 7.29722 2.7143 9.74437 2.71134 12.2969C2.71134 14.7546 5.06464 19.2994 9.33615 25.0939C9.69877 25.5852 10.1745 25.985 10.7244 26.2607C11.2743 26.5364 11.8828 26.6801 12.5 26.6801C13.1172 26.6801 13.7257 26.5364 14.2756 26.2607C14.8255 25.985 15.3012 25.5852 15.6638 25.0939C19.9354 19.2994 22.2887 14.7546 22.2887 12.2969C22.2857 9.74437 21.2534 7.29722 19.4184 5.4923C17.5833 3.68739 15.0952 2.67211 12.5 2.6692Z" fill="#3BBC2E"/>
</svg>
