<svg width="28" height="25" viewBox="0 0 28 25" fill="none" xmlns="http://www.w3.org/2000/svg">
<path d="M21.9122 0H5.76637C4.2376 0.00180438 2.77196 0.601002 1.69095 1.66616C0.609946 2.73132 0.00183123 4.17546 0 5.68182L0 19.3182C0.00183123 20.8245 0.609946 22.2687 1.69095 23.3338C2.77196 24.399 4.2376 24.9982 5.76637 25H21.9122C23.441 24.9982 24.9066 24.399 25.9876 23.3338C27.0686 22.2687 27.6767 20.8245 27.6786 19.3182V5.68182C27.6767 4.17546 27.0686 2.73132 25.9876 1.66616C24.9066 0.601002 23.441 0.00180438 21.9122 0ZM5.76637 2.27273H21.9122C22.6028 2.27407 23.2771 2.47899 23.8485 2.86114C24.4199 3.24329 24.8621 3.78517 25.1183 4.41705L16.2865 13.1205C15.6366 13.7583 14.7566 14.1164 13.8393 14.1164C12.922 14.1164 12.042 13.7583 11.392 13.1205L2.56027 4.41705C2.81647 3.78517 3.25871 3.24329 3.83008 2.86114C4.40145 2.47899 5.07581 2.27407 5.76637 2.27273ZM21.9122 22.7273H5.76637C4.84877 22.7273 3.96875 22.3681 3.31991 21.7288C2.67106 21.0894 2.30655 20.2223 2.30655 19.3182V7.38636L9.76131 14.7273C10.8438 15.7912 12.3103 16.3887 13.8393 16.3887C15.3682 16.3887 16.8348 15.7912 17.9173 14.7273L25.372 7.38636V19.3182C25.372 20.2223 25.0075 21.0894 24.3587 21.7288C23.7098 22.3681 22.8298 22.7273 21.9122 22.7273Z" fill="#61C159"/>
</svg>
