<svg width="25" height="25" viewBox="0 0 25 25" fill="none" xmlns="http://www.w3.org/2000/svg">
<path d="M13.523 1.04505C13.523 0.768325 13.6329 0.502937 13.8286 0.307265C14.0242 0.111594 14.2896 0.00166624 14.5663 0.00166624C17.3326 0.00470415 19.9847 1.10495 21.9407 3.06101C23.8967 5.01707 24.997 7.66919 25 10.4355C25 10.7122 24.8901 10.9776 24.6944 11.1733C24.4987 11.3689 24.2334 11.4789 23.9566 11.4789C23.6799 11.4789 23.4145 11.3689 23.2189 11.1733C23.0232 10.9776 22.9133 10.7122 22.9133 10.4355C22.9108 8.22246 22.0306 6.1008 20.4658 4.53596C18.901 2.97113 16.7793 2.09091 14.5663 2.08843C14.2896 2.08843 14.0242 1.9785 13.8286 1.78283C13.6329 1.58716 13.523 1.32177 13.523 1.04505ZM14.5663 6.26195C15.6732 6.26195 16.7348 6.70166 17.5174 7.48435C18.3001 8.26703 18.7398 9.32858 18.7398 10.4355C18.7398 10.7122 18.8497 10.9776 19.0454 11.1733C19.2411 11.3689 19.5065 11.4789 19.7832 11.4789C20.0599 11.4789 20.3253 11.3689 20.5209 11.1733C20.7166 10.9776 20.8265 10.7122 20.8265 10.4355C20.8249 8.77565 20.1648 7.18429 18.9911 6.01061C17.8175 4.83694 16.2261 4.17685 14.5663 4.17519C14.2896 4.17519 14.0242 4.28512 13.8286 4.48079C13.6329 4.67646 13.523 4.94185 13.523 5.21857C13.523 5.49529 13.6329 5.76068 13.8286 5.95635C14.0242 6.15202 14.2896 6.26195 14.5663 6.26195ZM24.0537 17.4668C24.6583 18.0731 24.9979 18.8945 24.9979 19.7508C24.9979 20.6071 24.6583 21.4284 24.0537 22.0347L23.1042 23.1292C14.559 31.3104 -6.23523 10.521 1.81955 1.94861L3.01942 0.905234C3.62642 0.317474 4.44041 -0.00767297 5.2853 0.000137528C6.13019 0.00794803 6.93803 0.348088 7.53406 0.946969C7.56641 0.979314 9.49976 3.49073 9.49976 3.49073C10.0734 4.09342 10.3928 4.894 10.3914 5.72607C10.3901 6.55814 10.0681 7.35768 9.49246 7.95849L8.28424 9.47765C8.95288 11.1023 9.93596 12.5788 11.177 13.8224C12.418 15.0659 13.8925 16.052 15.5158 16.7239L17.0443 15.5084C17.6452 14.9332 18.4446 14.6116 19.2764 14.6104C20.1082 14.6093 20.9085 14.9286 21.511 15.5021C21.511 15.5021 24.0213 17.4345 24.0537 17.4668ZM22.618 18.9839C22.618 18.9839 20.1212 17.063 20.0889 17.0307C19.8739 16.8175 19.5835 16.698 19.2808 16.698C18.9781 16.698 18.6877 16.8175 18.4727 17.0307C18.4445 17.0599 16.3401 18.7366 16.3401 18.7366C16.1982 18.8495 16.0295 18.9235 15.8504 18.9513C15.6712 18.9791 15.488 18.9598 15.3186 18.8952C13.2157 18.1122 11.3056 16.8864 9.71765 15.3008C8.12975 13.7153 6.90116 11.8069 6.11509 9.70511C6.04539 9.53342 6.02266 9.34627 6.04925 9.1629C6.07584 8.97953 6.15078 8.80654 6.26637 8.66173C6.26637 8.66173 7.94306 6.55618 7.97123 6.52905C8.18436 6.3141 8.30394 6.02366 8.30394 5.72096C8.30394 5.41825 8.18436 5.12781 7.97123 4.91286C7.93889 4.88156 6.01805 2.38266 6.01805 2.38266C5.79988 2.18703 5.51515 2.08227 5.22222 2.08983C4.92929 2.0974 4.65035 2.21672 4.44257 2.42335L3.2427 3.46673C-2.64397 10.545 15.376 27.5657 21.5788 21.704L22.5293 20.6084C22.752 20.4021 22.8858 20.1173 22.9024 19.8141C22.9189 19.5109 22.8169 19.2132 22.618 18.9839Z" fill="#61C159"/>
</svg>
