<svg width="40" height="40" viewBox="0 0 40 40" fill="none" xmlns="http://www.w3.org/2000/svg">
<g clip-path="url(#clip0_16_142)">
<circle cx="20" cy="20" r="19" fill="#3BBC2E" stroke="#3BBC2E" stroke-width="2"/>
<mask id="path-2-outside-1_16_142" maskUnits="userSpaceOnUse" x="8.229" y="13.354" width="23" height="15" fill="black">
<rect fill="white" x="8.229" y="13.354" width="23" height="15"/>
<path fill-rule="evenodd" clip-rule="evenodd" d="M30.4544 25.4594C29.9558 24.4552 29.2989 23.5379 28.5088 22.7427C28.2399 22.4301 27.9247 22.1217 27.6786 21.8809L27.6442 21.8473C27.5172 21.723 27.4124 21.6199 27.3266 21.531C28.4069 20.0288 29.3315 18.4203 30.0859 16.7302L30.1164 16.662L30.1377 16.5905C30.2368 16.2578 30.351 15.6252 29.947 15.0536C29.5295 14.4627 28.8609 14.3561 28.4132 14.3561H26.3533C25.924 14.3365 25.4987 14.4526 25.1385 14.6886C24.7755 14.9264 24.4978 15.2732 24.345 15.6787C23.9014 16.7353 23.3464 17.7404 22.69 18.677V16.2631C22.69 15.9511 22.6606 15.4292 22.3265 14.9886C21.9265 14.4611 21.348 14.3561 20.9464 14.3561H17.678C17.2569 14.3464 16.8474 14.497 16.5326 14.778C16.2103 15.0659 16.0128 15.4679 15.982 15.899L15.9791 15.9398V15.9807C15.9791 16.4258 16.1554 16.754 16.2963 16.9605C16.3594 17.0529 16.4268 17.1371 16.4694 17.1902L16.4793 17.2025C16.5247 17.2591 16.555 17.297 16.5855 17.3384C16.6656 17.4473 16.7807 17.6152 16.8133 18.0498V19.4C16.2498 18.4737 15.6554 17.2411 15.2082 15.9247L15.2013 15.9045L15.1937 15.8845C15.0822 15.5924 14.9034 15.1675 14.5451 14.8423C14.1266 14.4624 13.6317 14.3561 13.1815 14.3561H11.0916C10.6361 14.3561 10.0871 14.4627 9.67747 14.8948C9.27463 15.3198 9.229 15.829 9.229 16.0997V16.2218L9.25471 16.3411C9.83359 19.0279 11.0264 21.5441 12.7393 23.6927C13.516 24.9174 14.5683 25.944 15.8126 26.69C17.0768 27.4481 18.503 27.8949 19.9737 27.9937L20.012 27.9963H20.0505C20.7158 27.9963 21.4095 27.9389 21.9311 27.5913C22.6347 27.1224 22.69 26.4023 22.69 26.0434V25.0004C22.8706 25.1463 23.0946 25.3428 23.3689 25.6069C23.7004 25.9387 23.9644 26.2263 24.1908 26.4773L24.3117 26.6117L24.3124 26.6124C24.4882 26.8082 24.6613 27.001 24.8188 27.1594C25.0169 27.3585 25.2611 27.5779 25.5681 27.74C25.9005 27.9155 26.2494 27.9949 26.62 27.9949H28.7114C29.1519 27.9949 29.7839 27.8907 30.2282 27.3756C30.7124 26.8143 30.6754 26.1262 30.5232 25.6318L30.4958 25.5428L30.4544 25.4594ZM25.2117 25.5562C24.9763 25.2952 24.6924 24.9859 24.3337 24.6272L24.3307 24.6242C23.0876 23.4257 22.5067 23.2169 22.0961 23.2169C21.8776 23.2169 21.6359 23.2415 21.4791 23.4368C21.405 23.529 21.3661 23.6403 21.3443 23.7563C21.3225 23.872 21.315 24.008 21.315 24.1628V26.0434C21.315 26.277 21.2766 26.3751 21.1686 26.4471C21.0247 26.543 20.7171 26.6207 20.0582 26.6213C18.8075 26.536 17.5949 26.1555 16.5197 25.5108C15.4423 24.8649 14.5338 23.9721 13.8691 22.9062L13.8618 22.8947L13.8533 22.884C12.2571 20.8973 11.1449 18.5667 10.6043 16.0765C10.6072 15.9565 10.6332 15.8853 10.6754 15.8408C10.7188 15.795 10.824 15.7311 11.0916 15.7311H13.1815C13.414 15.7311 13.5343 15.7817 13.6209 15.8603C13.7191 15.9495 13.8042 16.1008 13.9077 16.3711C14.4207 17.8799 15.1144 19.2909 15.7713 20.3284C16.0996 20.8469 16.4227 21.2786 16.7139 21.5836C16.8592 21.7359 17.0017 21.8621 17.1377 21.9518C17.2694 22.0386 17.4186 22.1071 17.5721 22.1071C17.6531 22.1071 17.7478 22.0987 17.8391 22.0583C17.9372 22.015 18.0133 21.9425 18.0671 21.8455C18.1622 21.6739 18.1883 21.4197 18.1883 21.0866V18.0032L18.1879 17.996C18.1403 17.2459 17.9139 16.8239 17.6933 16.5239C17.645 16.4582 17.5973 16.3988 17.5556 16.3468L17.5442 16.3326C17.4984 16.2755 17.462 16.2293 17.432 16.1855C17.3772 16.1051 17.3559 16.049 17.3542 15.9889C17.3613 15.9176 17.3949 15.8515 17.4485 15.8036C17.5042 15.7539 17.577 15.7281 17.6515 15.7311H20.9464C21.1353 15.7311 21.1989 15.7772 21.2309 15.8195C21.2761 15.8791 21.315 16.003 21.315 16.2631V20.4144C21.315 20.9074 21.5423 21.2413 21.8724 21.2413C22.2523 21.2413 22.5261 21.0108 23.0049 20.532L23.0129 20.524L23.0201 20.5152C24.0933 19.2065 24.9705 17.7484 25.6233 16.1868L25.6274 16.1751C25.6766 16.0371 25.7694 15.919 25.892 15.8387C26.0145 15.7585 26.1598 15.7205 26.306 15.7306L26.3139 15.7311H28.4132C28.6995 15.7311 28.7937 15.804 28.8241 15.8471C28.8565 15.893 28.879 15.9912 28.824 16.1839C28.0714 17.8673 27.1406 19.4652 26.048 20.9507L26.0411 20.9612C25.9351 21.1234 25.8187 21.3029 25.8019 21.509C25.7838 21.7302 25.8796 21.9314 26.0471 22.147C26.1692 22.3275 26.421 22.574 26.6765 22.8241L26.7006 22.8477C26.9684 23.1098 27.2586 23.3938 27.4915 23.6688L27.4977 23.676L27.5045 23.6828C28.1989 24.3755 28.7763 25.1762 29.2142 26.0536C29.2841 26.2925 29.2413 26.4146 29.1869 26.4776C29.1234 26.5513 28.981 26.6199 28.7114 26.6199H26.62C26.4567 26.6199 26.3306 26.5877 26.2102 26.5241C26.0847 26.4579 25.9556 26.3524 25.7937 26.1897C25.6634 26.0586 25.5209 25.9001 25.3471 25.7067C25.304 25.6588 25.259 25.6086 25.2117 25.5562Z"/>
</mask>
<path fill-rule="evenodd" clip-rule="evenodd" d="M30.4544 25.4594C29.9558 24.4552 29.2989 23.5379 28.5088 22.7427C28.2399 22.4301 27.9247 22.1217 27.6786 21.8809L27.6442 21.8473C27.5172 21.723 27.4124 21.6199 27.3266 21.531C28.4069 20.0288 29.3315 18.4203 30.0859 16.7302L30.1164 16.662L30.1377 16.5905C30.2368 16.2578 30.351 15.6252 29.947 15.0536C29.5295 14.4627 28.8609 14.3561 28.4132 14.3561H26.3533C25.924 14.3365 25.4987 14.4526 25.1385 14.6886C24.7755 14.9264 24.4978 15.2732 24.345 15.6787C23.9014 16.7353 23.3464 17.7404 22.69 18.677V16.2631C22.69 15.9511 22.6606 15.4292 22.3265 14.9886C21.9265 14.4611 21.348 14.3561 20.9464 14.3561H17.678C17.2569 14.3464 16.8474 14.497 16.5326 14.778C16.2103 15.0659 16.0128 15.4679 15.982 15.899L15.9791 15.9398V15.9807C15.9791 16.4258 16.1554 16.754 16.2963 16.9605C16.3594 17.0529 16.4268 17.1371 16.4694 17.1902L16.4793 17.2025C16.5247 17.2591 16.555 17.297 16.5855 17.3384C16.6656 17.4473 16.7807 17.6152 16.8133 18.0498V19.4C16.2498 18.4737 15.6554 17.2411 15.2082 15.9247L15.2013 15.9045L15.1937 15.8845C15.0822 15.5924 14.9034 15.1675 14.5451 14.8423C14.1266 14.4624 13.6317 14.3561 13.1815 14.3561H11.0916C10.6361 14.3561 10.0871 14.4627 9.67747 14.8948C9.27463 15.3198 9.229 15.829 9.229 16.0997V16.2218L9.25471 16.3411C9.83359 19.0279 11.0264 21.5441 12.7393 23.6927C13.516 24.9174 14.5683 25.944 15.8126 26.69C17.0768 27.4481 18.503 27.8949 19.9737 27.9937L20.012 27.9963H20.0505C20.7158 27.9963 21.4095 27.9389 21.9311 27.5913C22.6347 27.1224 22.69 26.4023 22.69 26.0434V25.0004C22.8706 25.1463 23.0946 25.3428 23.3689 25.6069C23.7004 25.9387 23.9644 26.2263 24.1908 26.4773L24.3117 26.6117L24.3124 26.6124C24.4882 26.8082 24.6613 27.001 24.8188 27.1594C25.0169 27.3585 25.2611 27.5779 25.5681 27.74C25.9005 27.9155 26.2494 27.9949 26.62 27.9949H28.7114C29.1519 27.9949 29.7839 27.8907 30.2282 27.3756C30.7124 26.8143 30.6754 26.1262 30.5232 25.6318L30.4958 25.5428L30.4544 25.4594ZM25.2117 25.5562C24.9763 25.2952 24.6924 24.9859 24.3337 24.6272L24.3307 24.6242C23.0876 23.4257 22.5067 23.2169 22.0961 23.2169C21.8776 23.2169 21.6359 23.2415 21.4791 23.4368C21.405 23.529 21.3661 23.6403 21.3443 23.7563C21.3225 23.872 21.315 24.008 21.315 24.1628V26.0434C21.315 26.277 21.2766 26.3751 21.1686 26.4471C21.0247 26.543 20.7171 26.6207 20.0582 26.6213C18.8075 26.536 17.5949 26.1555 16.5197 25.5108C15.4423 24.8649 14.5338 23.9721 13.8691 22.9062L13.8618 22.8947L13.8533 22.884C12.2571 20.8973 11.1449 18.5667 10.6043 16.0765C10.6072 15.9565 10.6332 15.8853 10.6754 15.8408C10.7188 15.795 10.824 15.7311 11.0916 15.7311H13.1815C13.414 15.7311 13.5343 15.7817 13.6209 15.8603C13.7191 15.9495 13.8042 16.1008 13.9077 16.3711C14.4207 17.8799 15.1144 19.2909 15.7713 20.3284C16.0996 20.8469 16.4227 21.2786 16.7139 21.5836C16.8592 21.7359 17.0017 21.8621 17.1377 21.9518C17.2694 22.0386 17.4186 22.1071 17.5721 22.1071C17.6531 22.1071 17.7478 22.0987 17.8391 22.0583C17.9372 22.015 18.0133 21.9425 18.0671 21.8455C18.1622 21.6739 18.1883 21.4197 18.1883 21.0866V18.0032L18.1879 17.996C18.1403 17.2459 17.9139 16.8239 17.6933 16.5239C17.645 16.4582 17.5973 16.3988 17.5556 16.3468L17.5442 16.3326C17.4984 16.2755 17.462 16.2293 17.432 16.1855C17.3772 16.1051 17.3559 16.049 17.3542 15.9889C17.3613 15.9176 17.3949 15.8515 17.4485 15.8036C17.5042 15.7539 17.577 15.7281 17.6515 15.7311H20.9464C21.1353 15.7311 21.1989 15.7772 21.2309 15.8195C21.2761 15.8791 21.315 16.003 21.315 16.2631V20.4144C21.315 20.9074 21.5423 21.2413 21.8724 21.2413C22.2523 21.2413 22.5261 21.0108 23.0049 20.532L23.0129 20.524L23.0201 20.5152C24.0933 19.2065 24.9705 17.7484 25.6233 16.1868L25.6274 16.1751C25.6766 16.0371 25.7694 15.919 25.892 15.8387C26.0145 15.7585 26.1598 15.7205 26.306 15.7306L26.3139 15.7311H28.4132C28.6995 15.7311 28.7937 15.804 28.8241 15.8471C28.8565 15.893 28.879 15.9912 28.824 16.1839C28.0714 17.8673 27.1406 19.4652 26.048 20.9507L26.0411 20.9612C25.9351 21.1234 25.8187 21.3029 25.8019 21.509C25.7838 21.7302 25.8796 21.9314 26.0471 22.147C26.1692 22.3275 26.421 22.574 26.6765 22.8241L26.7006 22.8477C26.9684 23.1098 27.2586 23.3938 27.4915 23.6688L27.4977 23.676L27.5045 23.6828C28.1989 24.3755 28.7763 25.1762 29.2142 26.0536C29.2841 26.2925 29.2413 26.4146 29.1869 26.4776C29.1234 26.5513 28.981 26.6199 28.7114 26.6199H26.62C26.4567 26.6199 26.3306 26.5877 26.2102 26.5241C26.0847 26.4579 25.9556 26.3524 25.7937 26.1897C25.6634 26.0586 25.5209 25.9001 25.3471 25.7067C25.304 25.6588 25.259 25.6086 25.2117 25.5562Z" fill="white"/>
<path fill-rule="evenodd" clip-rule="evenodd" d="M30.4544 25.4594C29.9558 24.4552 29.2989 23.5379 28.5088 22.7427C28.2399 22.4301 27.9247 22.1217 27.6786 21.8809L27.6442 21.8473C27.5172 21.723 27.4124 21.6199 27.3266 21.531C28.4069 20.0288 29.3315 18.4203 30.0859 16.7302L30.1164 16.662L30.1377 16.5905C30.2368 16.2578 30.351 15.6252 29.947 15.0536C29.5295 14.4627 28.8609 14.3561 28.4132 14.3561H26.3533C25.924 14.3365 25.4987 14.4526 25.1385 14.6886C24.7755 14.9264 24.4978 15.2732 24.345 15.6787C23.9014 16.7353 23.3464 17.7404 22.69 18.677V16.2631C22.69 15.9511 22.6606 15.4292 22.3265 14.9886C21.9265 14.4611 21.348 14.3561 20.9464 14.3561H17.678C17.2569 14.3464 16.8474 14.497 16.5326 14.778C16.2103 15.0659 16.0128 15.4679 15.982 15.899L15.9791 15.9398V15.9807C15.9791 16.4258 16.1554 16.754 16.2963 16.9605C16.3594 17.0529 16.4268 17.1371 16.4694 17.1902L16.4793 17.2025C16.5247 17.2591 16.555 17.297 16.5855 17.3384C16.6656 17.4473 16.7807 17.6152 16.8133 18.0498V19.4C16.2498 18.4737 15.6554 17.2411 15.2082 15.9247L15.2013 15.9045L15.1937 15.8845C15.0822 15.5924 14.9034 15.1675 14.5451 14.8423C14.1266 14.4624 13.6317 14.3561 13.1815 14.3561H11.0916C10.6361 14.3561 10.0871 14.4627 9.67747 14.8948C9.27463 15.3198 9.229 15.829 9.229 16.0997V16.2218L9.25471 16.3411C9.83359 19.0279 11.0264 21.5441 12.7393 23.6927C13.516 24.9174 14.5683 25.944 15.8126 26.69C17.0768 27.4481 18.503 27.8949 19.9737 27.9937L20.012 27.9963H20.0505C20.7158 27.9963 21.4095 27.9389 21.9311 27.5913C22.6347 27.1224 22.69 26.4023 22.69 26.0434V25.0004C22.8706 25.1463 23.0946 25.3428 23.3689 25.6069C23.7004 25.9387 23.9644 26.2263 24.1908 26.4773L24.3117 26.6117L24.3124 26.6124C24.4882 26.8082 24.6613 27.001 24.8188 27.1594C25.0169 27.3585 25.2611 27.5779 25.5681 27.74C25.9005 27.9155 26.2494 27.9949 26.62 27.9949H28.7114C29.1519 27.9949 29.7839 27.8907 30.2282 27.3756C30.7124 26.8143 30.6754 26.1262 30.5232 25.6318L30.4958 25.5428L30.4544 25.4594ZM25.2117 25.5562C24.9763 25.2952 24.6924 24.9859 24.3337 24.6272L24.3307 24.6242C23.0876 23.4257 22.5067 23.2169 22.0961 23.2169C21.8776 23.2169 21.6359 23.2415 21.4791 23.4368C21.405 23.529 21.3661 23.6403 21.3443 23.7563C21.3225 23.872 21.315 24.008 21.315 24.1628V26.0434C21.315 26.277 21.2766 26.3751 21.1686 26.4471C21.0247 26.543 20.7171 26.6207 20.0582 26.6213C18.8075 26.536 17.5949 26.1555 16.5197 25.5108C15.4423 24.8649 14.5338 23.9721 13.8691 22.9062L13.8618 22.8947L13.8533 22.884C12.2571 20.8973 11.1449 18.5667 10.6043 16.0765C10.6072 15.9565 10.6332 15.8853 10.6754 15.8408C10.7188 15.795 10.824 15.7311 11.0916 15.7311H13.1815C13.414 15.7311 13.5343 15.7817 13.6209 15.8603C13.7191 15.9495 13.8042 16.1008 13.9077 16.3711C14.4207 17.8799 15.1144 19.2909 15.7713 20.3284C16.0996 20.8469 16.4227 21.2786 16.7139 21.5836C16.8592 21.7359 17.0017 21.8621 17.1377 21.9518C17.2694 22.0386 17.4186 22.1071 17.5721 22.1071C17.6531 22.1071 17.7478 22.0987 17.8391 22.0583C17.9372 22.015 18.0133 21.9425 18.0671 21.8455C18.1622 21.6739 18.1883 21.4197 18.1883 21.0866V18.0032L18.1879 17.996C18.1403 17.2459 17.9139 16.8239 17.6933 16.5239C17.645 16.4582 17.5973 16.3988 17.5556 16.3468L17.5442 16.3326C17.4984 16.2755 17.462 16.2293 17.432 16.1855C17.3772 16.1051 17.3559 16.049 17.3542 15.9889C17.3613 15.9176 17.3949 15.8515 17.4485 15.8036C17.5042 15.7539 17.577 15.7281 17.6515 15.7311H20.9464C21.1353 15.7311 21.1989 15.7772 21.2309 15.8195C21.2761 15.8791 21.315 16.003 21.315 16.2631V20.4144C21.315 20.9074 21.5423 21.2413 21.8724 21.2413C22.2523 21.2413 22.5261 21.0108 23.0049 20.532L23.0129 20.524L23.0201 20.5152C24.0933 19.2065 24.9705 17.7484 25.6233 16.1868L25.6274 16.1751C25.6766 16.0371 25.7694 15.919 25.892 15.8387C26.0145 15.7585 26.1598 15.7205 26.306 15.7306L26.3139 15.7311H28.4132C28.6995 15.7311 28.7937 15.804 28.8241 15.8471C28.8565 15.893 28.879 15.9912 28.824 16.1839C28.0714 17.8673 27.1406 19.4652 26.048 20.9507L26.0411 20.9612C25.9351 21.1234 25.8187 21.3029 25.8019 21.509C25.7838 21.7302 25.8796 21.9314 26.0471 22.147C26.1692 22.3275 26.421 22.574 26.6765 22.8241L26.7006 22.8477C26.9684 23.1098 27.2586 23.3938 27.4915 23.6688L27.4977 23.676L27.5045 23.6828C28.1989 24.3755 28.7763 25.1762 29.2142 26.0536C29.2841 26.2925 29.2413 26.4146 29.1869 26.4776C29.1234 26.5513 28.981 26.6199 28.7114 26.6199H26.62C26.4567 26.6199 26.3306 26.5877 26.2102 26.5241C26.0847 26.4579 25.9556 26.3524 25.7937 26.1897C25.6634 26.0586 25.5209 25.9001 25.3471 25.7067C25.304 25.6588 25.259 25.6086 25.2117 25.5562Z" stroke="white" stroke-width="0.4" mask="url(#path-2-outside-1_16_142)"/>
</g>
<defs>
<clipPath id="clip0_16_142">
<rect width="40" height="40" fill="white"/>
</clipPath>
</defs>
</svg>
