<svg width="40" height="40" viewBox="0 0 40 40" fill="none" xmlns="http://www.w3.org/2000/svg">
<g clip-path="url(#clip0_16_148)">
<circle cx="20" cy="20" r="20" fill="#3BBC2E"/>
<rect width="26" height="26" transform="translate(7 7)" fill="#3BBC2E"/>
<path fill-rule="evenodd" clip-rule="evenodd" d="M26.9366 13.1024C26.0356 12.1956 24.9637 11.4765 23.7828 10.9869C22.602 10.4972 21.3357 10.2468 20.0574 10.25C14.6971 10.25 10.3334 14.6126 10.3313 19.9751C10.3313 21.6889 10.7787 23.3616 11.6291 24.8371L10.25 29.8757L15.4056 28.5226C16.8317 29.2989 18.4294 29.706 20.0531 29.7067H20.0574C25.4167 29.7067 29.7803 25.3441 29.7825 19.9816C29.7862 18.7038 29.5366 17.4379 29.0481 16.2572C28.5596 15.0764 27.8419 14.0042 26.9366 13.1024ZM20.0574 28.0654H20.0542C18.6063 28.0656 17.1851 27.6761 15.9397 26.9377L15.645 26.7622L12.5857 27.5649L13.4014 24.5825L13.2097 24.277C12.4002 22.9883 11.9717 21.497 11.9736 19.9751C11.9758 15.5183 15.6017 11.8924 20.0607 11.8924C21.1226 11.89 22.1745 12.0983 23.1554 12.5052C24.1363 12.912 25.0268 13.5094 25.7752 14.2627C26.5278 15.0124 27.1242 15.9038 27.5301 16.8854C27.9361 17.8671 28.1434 18.9194 28.1402 19.9816C28.138 24.4384 24.5121 28.0654 20.0574 28.0654ZM24.4915 22.0107C24.2478 21.8883 23.0539 21.3011 22.8308 21.2199C22.6087 21.1386 22.4473 21.0985 22.2848 21.3412C22.1223 21.5839 21.6564 22.1309 21.5145 22.2934C21.3726 22.4559 21.2307 22.4754 20.988 22.3541C20.7453 22.2328 19.9621 21.976 19.0337 21.1484C18.3111 20.5038 17.8236 19.7086 17.6817 19.4649C17.5398 19.2211 17.6665 19.09 17.7889 18.9687C17.8983 18.8604 18.0316 18.6849 18.1529 18.5429C18.2743 18.401 18.3143 18.3003 18.3956 18.1378C18.4768 17.9753 18.4368 17.8334 18.375 17.712C18.3143 17.5896 17.8279 16.3936 17.6253 15.9072C17.4292 15.4359 17.2288 15.4988 17.0793 15.4923C16.9245 15.4859 16.7695 15.4831 16.6146 15.4836C16.4914 15.4868 16.3701 15.5153 16.2584 15.5675C16.1468 15.6197 16.0471 15.6944 15.9657 15.7869C15.7425 16.0307 15.1153 16.6179 15.1153 17.8139C15.1153 19.0099 15.9862 20.1658 16.1076 20.3283C16.2289 20.4908 17.8214 22.9445 20.2589 23.9975C20.8396 24.2478 21.2924 24.3973 21.6445 24.5099C22.2262 24.6952 22.756 24.6681 23.1753 24.6064C23.6422 24.537 24.6128 24.0192 24.8154 23.4515C25.018 22.8839 25.018 22.3974 24.9573 22.2956C24.8967 22.1938 24.7331 22.132 24.4915 22.0107Z" fill="white"/>
</g>
<defs>
<clipPath id="clip0_16_148">
<rect width="40" height="40" fill="white"/>
</clipPath>
</defs>
</svg>
